<svg id="Newsweek" xmlns="http://www.w3.org/2000/svg" width="500" height="150" viewBox="0 0 500 150">
  <path fill-rule="evenodd" clip-rule="evenodd" fill="#1E1E1E" d="M451.305 89.78v2.71h3.574v13.217h-22.92V92.57h3.02V54.967h-2.84V42.734h19.16v36.864l9.53-6.65h-4.31V59.893h25.02v13.054h-5.23L471 77.052l6.873 15.517h3.75v13.13h-25.2V92.48h3.94l-2.84-6.897-6.23 4.19zm-34.68-2.136h15.03c-3.85 12.972-8.8 19.704-25.02 19.704-7.608 0-13.657-2.463-18.24-6.568-4.307-3.86-6.873-10.59-6.873-17.98 0-7.39 3.3-13.712 6.873-17.242 3.94-3.94 10.632-6.486 18.24-6.486 8.43 0 15.854 2.052 19.154 5.665 3.39 3.86 6.04 10.673 6.04 18.062v2.46h-30.52c0 3.28 1.37 6.56 1.56 7.3.45 1.89 3.75 3.28 6.87 3.28 1.46 0 3.2-.66 4.58-1.65.91-.66 3.48-3.86 2.29-6.57zm-14.94-9.77h11.456v-.82c0-2.464-1.19-4.434-1.55-4.927-.36-.656-2.29-1.642-3.85-1.642-2.2 0-3.85.738-4.49 1.642 0 .082-1.56 2.463-1.56 4.926v.82zm-21.31 9.77c-4.033 12.972-8.98 19.704-25.295 19.704-7.607 0-13.748-2.463-18.33-6.568-4.308-3.86-6.874-10.59-6.874-17.98 0-7.39 3.208-13.547 6.874-17.242 4.124-4.024 10.723-6.486 18.33-6.486 8.432 0 15.58 1.888 19.063 5.665 3.666 3.94 6.14 10.673 6.14 18.062v2.46h-30.518c0 3.28 1.283 6.4 1.558 7.3.642 1.97 3.758 3.28 6.782 3.28 1.558 0 3.483-.91 4.583-1.65.733-.49 3.482-4.19 2.474-6.65l15.213.08zm-30.245-9.77h11.364v-.82c0-2.464-1.008-4.352-1.466-4.927-.642-.738-2.29-1.642-3.85-1.642-2.29 0-3.757.575-4.58 1.642-.093.164-1.467 2.463-1.467 4.926v.82zm-82.485 27.832l-13.748-32.76h-3.116V59.894h27.41v13.054h-2.93l3.76 13.958 4.77-13.958h-3.58V59.893h30.16v13.054l-3.02-.082 4.49 14.04 4.584-13.958h-4.03V59.893h19.34v13.054h-3.85l-12.92 32.76h-15.31L291.29 82.8l-8.433 22.905h-15.212zM206.24 72.948h-2.108l-13.014 32.76h-15.214L167.472 82.8l-8.34 22.907h-15.305l-13.748-32.76h-3.03V59.894h27.49v13.054h-3.12l3.85 13.958 4.76-13.958h-3.67V59.893h30.88v13.054h-3.574l4.4 13.958 4.58-13.958h-3.57V59.893h18.79v7.143c.824-1.56 1.832-2.956 2.84-3.94 2.842-2.628 6.873-4.024 11.457-4.024 3.022 0 5.68.33 7.605.82 1.833.493 4.582 1.56 6.14 3.203v-3.202h12.923V74.59h-12.92c-.825-1.643-2.66-3.613-3.85-4.106-1.1-.493-3.025-1.642-5.316-1.642-1.56 0-2.75.33-3.12.82-.368.412-1.467 1.644-1.467 2.464 0 .82 1.1 1.232 1.465 1.643.366.49 2.66.65 5.407 1.64l6.874 2.46c4.126 1.48 8.708 2.79 10.63 4.92 1.836 2.13 3.85 5.74 3.85 8.95 0 4.92-1.555 9.03-4.58 11.49-3.024 2.46-6.05 3.45-11.364 3.45-2.294 0-5.5-.09-7.7-.99-1.65-.66-4.58-1.65-6.875-3.29v3.28h-13.74V90.92h13.75c.73 1.643 1.74 3.777 3.755 4.927 1.1.577 3.116 1.644 5.407 1.644 1.47 0 2.66-.65 3.027-.82.735-.33 1.56-1.64 1.56-2.46 0-1.64-2.75-2.54-6.14-3.28-.46-.08-1.375-.74-1.56-.74l-7.606-1.64c-3.12-.65-7.245-3.61-9.17-5.75-1.832-2.13-3.023-4.93-3.023-9.03 0-.49 0-.33.09-.82zm-77.627 14.614c-4.124 12.972-9.623 19.786-25.754 19.786-7.61 0-13.93-2.545-18.33-6.568-4.4-3.94-6.79-10.59-6.79-17.98 0-7.39 2.56-13.137 6.78-17.242 4.58-4.598 10.72-6.486 18.33-6.486 8.43 0 15.03 1.395 19.06 5.665 4.21 4.434 6.14 10.673 6.14 18.062v2.46H97.54c0 3.28.826 5.83 1.56 7.3 1.282 2.38 3.757 3.28 6.873 3.28 1.466 0 3.39-.91 4.49-1.65.733-.49 3.025-4.76 2.29-6.65h15.858zM97.91 77.874h11.457v-.82c0-2.464-.55-3.777-1.558-4.927-1.1-1.23-2.3-1.642-3.85-1.642-2.29 0-3.21.082-4.59 1.642-.64.657-1.47 2.463-1.47 4.926v.82zM34.398 66.38v26.19h5.316v13.137H18.36V92.57h3.848V54.967h-3.85V42.652h25.204l19.796 36.864v-24.55h-5.315V42.653h21.355V54.97h-3.85v50.74H55.02L34.4 66.38z"/>
</svg>
